<mxfile host="app.diagrams.net" modified="2024-06-11T21:00:04.320Z" agent="Mozilla/5.0 (Windows NT 10.0; Win64; x64) AppleWebKit/537.36 (KHTML, like Gecko) Chrome/125.0.0.0 Safari/537.36" etag="bgToQbdlxKs4_gpD-3Hb" version="24.5.3" type="github">
  <diagram name="Page-1" id="ikWkzvx6xTWAmCbEeZHH">
    <mxGraphModel dx="1707" dy="468" grid="1" gridSize="10" guides="1" tooltips="1" connect="1" arrows="1" fold="1" page="1" pageScale="1" pageWidth="827" pageHeight="1169" math="0" shadow="0">
      <root>
        <mxCell id="0" />
        <mxCell id="1" parent="0" />
        <mxCell id="J-hBi2NSB6qlMlXXp8u3-1" value="&lt;p style=&quot;margin: 4px 0px 0px; text-align: center; font-size: 16px;&quot;&gt;&lt;font style=&quot;font-size: 16px;&quot;&gt;RoomyWebApp&lt;/font&gt;&lt;/p&gt;&lt;p style=&quot;margin: 4px 0px 0px; text-align: center; font-size: 16px;&quot;&gt;&lt;font style=&quot;font-size: 16px;&quot;&gt;DFD Level 2&lt;/font&gt;&lt;/p&gt;" style="verticalAlign=middle;align=center;overflow=fill;fontSize=12;fontFamily=Helvetica;html=1;rounded=1;fontStyle=1;strokeWidth=3;fillColor=#E6FFCC" parent="1" vertex="1">
          <mxGeometry x="70" y="236" width="790" height="624" as="geometry" />
        </mxCell>
        <mxCell id="J-hBi2NSB6qlMlXXp8u3-2" value="&lt;font style=&quot;font-size: 16px;&quot;&gt;&lt;b&gt;User&lt;/b&gt;&lt;/font&gt;" style="html=1;dashed=0;whiteSpace=wrap;" parent="1" vertex="1">
          <mxGeometry x="-80" y="430" width="100" height="50" as="geometry" />
        </mxCell>
        <mxCell id="J-hBi2NSB6qlMlXXp8u3-3" value="Room Join Handler" style="html=1;dropTarget=0;whiteSpace=wrap;" parent="1" vertex="1">
          <mxGeometry x="300" y="585" width="170" height="50" as="geometry" />
        </mxCell>
        <mxCell id="J-hBi2NSB6qlMlXXp8u3-4" value="" style="shape=module;jettyWidth=8;jettyHeight=4;" parent="J-hBi2NSB6qlMlXXp8u3-3" vertex="1">
          <mxGeometry x="1" width="20" height="20" relative="1" as="geometry">
            <mxPoint x="-27" y="7" as="offset" />
          </mxGeometry>
        </mxCell>
        <mxCell id="J-hBi2NSB6qlMlXXp8u3-5" value="Room Creation Handler" style="html=1;dropTarget=0;whiteSpace=wrap;" parent="1" vertex="1">
          <mxGeometry x="100" y="585" width="170" height="50" as="geometry" />
        </mxCell>
        <mxCell id="J-hBi2NSB6qlMlXXp8u3-6" value="" style="shape=module;jettyWidth=8;jettyHeight=4;" parent="J-hBi2NSB6qlMlXXp8u3-5" vertex="1">
          <mxGeometry x="1" width="20" height="20" relative="1" as="geometry">
            <mxPoint x="-27" y="7" as="offset" />
          </mxGeometry>
        </mxCell>
        <mxCell id="J-hBi2NSB6qlMlXXp8u3-7" value="&lt;b&gt;Validation Handler&lt;/b&gt;" style="html=1;dropTarget=0;whiteSpace=wrap;" parent="1" vertex="1">
          <mxGeometry x="630" y="463" width="170" height="50" as="geometry" />
        </mxCell>
        <mxCell id="J-hBi2NSB6qlMlXXp8u3-8" value="" style="shape=module;jettyWidth=8;jettyHeight=4;" parent="J-hBi2NSB6qlMlXXp8u3-7" vertex="1">
          <mxGeometry x="1" width="20" height="20" relative="1" as="geometry">
            <mxPoint x="-27" y="7" as="offset" />
          </mxGeometry>
        </mxCell>
        <mxCell id="J-hBi2NSB6qlMlXXp8u3-9" value="Login-Handler" style="html=1;dropTarget=0;whiteSpace=wrap;" parent="1" vertex="1">
          <mxGeometry x="300" y="463" width="170" height="50" as="geometry" />
        </mxCell>
        <mxCell id="J-hBi2NSB6qlMlXXp8u3-10" value="" style="shape=module;jettyWidth=8;jettyHeight=4;" parent="J-hBi2NSB6qlMlXXp8u3-9" vertex="1">
          <mxGeometry x="1" width="20" height="20" relative="1" as="geometry">
            <mxPoint x="-27" y="7" as="offset" />
          </mxGeometry>
        </mxCell>
        <mxCell id="J-hBi2NSB6qlMlXXp8u3-11" value="Room Deletion Handler" style="html=1;dropTarget=0;whiteSpace=wrap;" parent="1" vertex="1">
          <mxGeometry x="630" y="585" width="170" height="50" as="geometry" />
        </mxCell>
        <mxCell id="J-hBi2NSB6qlMlXXp8u3-12" value="" style="shape=module;jettyWidth=8;jettyHeight=4;" parent="J-hBi2NSB6qlMlXXp8u3-11" vertex="1">
          <mxGeometry x="1" width="20" height="20" relative="1" as="geometry">
            <mxPoint x="-27" y="7" as="offset" />
          </mxGeometry>
        </mxCell>
        <mxCell id="J-hBi2NSB6qlMlXXp8u3-13" value="Sign-Up handler" style="html=1;dropTarget=0;whiteSpace=wrap;" parent="1" vertex="1">
          <mxGeometry x="90" y="463" width="170" height="50" as="geometry" />
        </mxCell>
        <mxCell id="J-hBi2NSB6qlMlXXp8u3-14" value="" style="shape=module;jettyWidth=8;jettyHeight=4;" parent="J-hBi2NSB6qlMlXXp8u3-13" vertex="1">
          <mxGeometry x="1" width="20" height="20" relative="1" as="geometry">
            <mxPoint x="-27" y="7" as="offset" />
          </mxGeometry>
        </mxCell>
        <mxCell id="J-hBi2NSB6qlMlXXp8u3-15" value="Messaging Page" style="html=1;dropTarget=0;whiteSpace=wrap;" parent="1" vertex="1">
          <mxGeometry x="310" y="320" width="170" height="50" as="geometry" />
        </mxCell>
        <mxCell id="J-hBi2NSB6qlMlXXp8u3-16" value="" style="shape=module;jettyWidth=8;jettyHeight=4;" parent="J-hBi2NSB6qlMlXXp8u3-15" vertex="1">
          <mxGeometry x="1" width="20" height="20" relative="1" as="geometry">
            <mxPoint x="-27" y="7" as="offset" />
          </mxGeometry>
        </mxCell>
        <mxCell id="J-hBi2NSB6qlMlXXp8u3-17" value="Room Management&amp;nbsp;&lt;div&gt;Page&lt;/div&gt;" style="html=1;dropTarget=0;whiteSpace=wrap;" parent="1" vertex="1">
          <mxGeometry x="630" y="320" width="170" height="50" as="geometry" />
        </mxCell>
        <mxCell id="J-hBi2NSB6qlMlXXp8u3-18" value="" style="shape=module;jettyWidth=8;jettyHeight=4;" parent="J-hBi2NSB6qlMlXXp8u3-17" vertex="1">
          <mxGeometry x="1" width="20" height="20" relative="1" as="geometry">
            <mxPoint x="-27" y="7" as="offset" />
          </mxGeometry>
        </mxCell>
        <mxCell id="J-hBi2NSB6qlMlXXp8u3-19" value="Sign-Up / Login" style="html=1;dropTarget=0;whiteSpace=wrap;" parent="1" vertex="1">
          <mxGeometry x="110" y="320" width="170" height="50" as="geometry" />
        </mxCell>
        <mxCell id="J-hBi2NSB6qlMlXXp8u3-20" value="" style="shape=module;jettyWidth=8;jettyHeight=4;" parent="J-hBi2NSB6qlMlXXp8u3-19" vertex="1">
          <mxGeometry x="1" width="20" height="20" relative="1" as="geometry">
            <mxPoint x="-27" y="7" as="offset" />
          </mxGeometry>
        </mxCell>
        <mxCell id="eR2ypLf8ymziXooT0nL1-4" value="Send Message Handler" style="html=1;dropTarget=0;whiteSpace=wrap;" vertex="1" parent="1">
          <mxGeometry x="100" y="710" width="170" height="50" as="geometry" />
        </mxCell>
        <mxCell id="eR2ypLf8ymziXooT0nL1-5" value="" style="shape=module;jettyWidth=8;jettyHeight=4;" vertex="1" parent="eR2ypLf8ymziXooT0nL1-4">
          <mxGeometry x="1" width="20" height="20" relative="1" as="geometry">
            <mxPoint x="-27" y="7" as="offset" />
          </mxGeometry>
        </mxCell>
        <mxCell id="eR2ypLf8ymziXooT0nL1-6" value="Receive Message Handler" style="html=1;dropTarget=0;whiteSpace=wrap;" vertex="1" parent="1">
          <mxGeometry x="310" y="710" width="170" height="50" as="geometry" />
        </mxCell>
        <mxCell id="eR2ypLf8ymziXooT0nL1-7" value="" style="shape=module;jettyWidth=8;jettyHeight=4;" vertex="1" parent="eR2ypLf8ymziXooT0nL1-6">
          <mxGeometry x="1" width="20" height="20" relative="1" as="geometry">
            <mxPoint x="-27" y="7" as="offset" />
          </mxGeometry>
        </mxCell>
        <mxCell id="eR2ypLf8ymziXooT0nL1-8" value="Message Notification Handler" style="html=1;dropTarget=0;whiteSpace=wrap;" vertex="1" parent="1">
          <mxGeometry x="610" y="670" width="170" height="50" as="geometry" />
        </mxCell>
        <mxCell id="eR2ypLf8ymziXooT0nL1-9" value="" style="shape=module;jettyWidth=8;jettyHeight=4;" vertex="1" parent="eR2ypLf8ymziXooT0nL1-8">
          <mxGeometry x="1" width="20" height="20" relative="1" as="geometry">
            <mxPoint x="-27" y="7" as="offset" />
          </mxGeometry>
        </mxCell>
        <mxCell id="eR2ypLf8ymziXooT0nL1-10" value="Room Activity&amp;nbsp;&lt;div&gt;&amp;nbsp;Notification Handler&lt;/div&gt;" style="html=1;dropTarget=0;whiteSpace=wrap;" vertex="1" parent="1">
          <mxGeometry x="600" y="760" width="170" height="50" as="geometry" />
        </mxCell>
        <mxCell id="eR2ypLf8ymziXooT0nL1-11" value="" style="shape=module;jettyWidth=8;jettyHeight=4;" vertex="1" parent="eR2ypLf8ymziXooT0nL1-10">
          <mxGeometry x="1" width="20" height="20" relative="1" as="geometry">
            <mxPoint x="-27" y="7" as="offset" />
          </mxGeometry>
        </mxCell>
        <mxCell id="eR2ypLf8ymziXooT0nL1-12" style="edgeStyle=orthogonalEdgeStyle;rounded=0;orthogonalLoop=1;jettySize=auto;html=1;" edge="1" parent="1" source="J-hBi2NSB6qlMlXXp8u3-10" target="J-hBi2NSB6qlMlXXp8u3-7">
          <mxGeometry relative="1" as="geometry" />
        </mxCell>
        <mxCell id="eR2ypLf8ymziXooT0nL1-13" value="Validate Credentials" style="edgeLabel;html=1;align=center;verticalAlign=middle;resizable=0;points=[];" vertex="1" connectable="0" parent="eR2ypLf8ymziXooT0nL1-12">
          <mxGeometry x="0.2114" y="-1" relative="1" as="geometry">
            <mxPoint as="offset" />
          </mxGeometry>
        </mxCell>
      </root>
    </mxGraphModel>
  </diagram>
</mxfile>
